<?xml version="1.0" standalone="no"?><!DOCTYPE svg PUBLIC "-//W3C//DTD SVG 1.1//EN" "http://www.w3.org/Graphics/SVG/1.1/DTD/svg11.dtd"><svg t="1488705747919" class="icon" style="" viewBox="0 0 1024 1024" version="1.1" xmlns="http://www.w3.org/2000/svg" p-id="2107" xmlns:xlink="http://www.w3.org/1999/xlink" width="16" height="16"><defs><style type="text/css"></style></defs><path d="M904.918285 640.085194l-72.903831 0 0-97.869606c0-32.276626-24.557457-58.540016-54.85082-58.540016L540.198555 483.675572l0-97.756014 54.665593 0c20.230711 0 36.527644-17.531099 36.527644-39.156643L631.391791 170.91159c0-21.686945-16.354241-39.156643-36.527644-39.156643L430.818249 131.754946c-20.230711 0-36.527644 17.531099-36.527644 39.156643L394.290605 346.763939c0 21.686945 16.354241 39.156643 36.527644 39.156643l36.426331 0 0 97.756014L230.2795 483.676596c-30.309737 0-54.85082 26.209152-54.85082 58.540016l0 97.869606-54.665593 0c-20.230711 0-36.527644 17.531099-36.527644 39.156643l0 175.852349c0 21.686945 16.354241 39.156643 36.527644 39.156643l164.045899 0c20.230711 0 36.527644-17.531099 36.527644-39.156643L321.33663 679.241838c0-21.686945-16.354241-39.156643-36.527644-39.156643l-54.665593 0 0-97.756014 237.100163 0 0 97.756014-36.426331 0c-20.230711 0-36.527644 17.531099-36.527644 39.156643l0 175.852349c0 21.686945 16.354241 39.156643 36.527644 39.156643l164.045899 0c20.230711 0 36.527644-17.531099 36.527644-39.156643L631.390768 679.241838c0-21.686945-16.354241-39.156643-36.527644-39.156643L540.198555 640.085194l0-97.756014 237.100163 0 0 97.756014-36.426331 0c-20.230711 0-36.527644 17.531099-36.527644 39.156643l0 175.852349c0 21.686945 16.354241 39.156643 36.527644 39.156643l164.045899 0c20.230711 0 36.527644-17.531099 36.527644-39.156643L941.445929 679.241838C941.444906 657.554892 925.091688 640.085194 904.918285 640.085194z" p-id="2108" fill="#dbdbdb"></path></svg>