<?xml version="1.0" standalone="no"?><!DOCTYPE svg PUBLIC "-//W3C//DTD SVG 1.1//EN" "http://www.w3.org/Graphics/SVG/1.1/DTD/svg11.dtd"><svg t="1488716027108" class="icon" style="" viewBox="0 0 1024 1024" version="1.1" xmlns="http://www.w3.org/2000/svg" p-id="9611" xmlns:xlink="http://www.w3.org/1999/xlink" width="16" height="16"><defs><style type="text/css"></style></defs><path d="M910.368211 910.262398C910.879882 910.262398 113.185066 113.079252 113.185066 113.079252c-0.341114 0 797.183146 797.183146 797.183145 797.183146zM33.19386 33.088047a113.420366 113.420366 0 0 1 159.811854 0.170557L990.18886 830.612306a112.567582 112.567582 0 1 1-159.641298 159.641298L33.364417 192.729344A112.567582 112.567582 0 0 1 33.19386 33.088047z m79.991206 877.174351C113.185066 910.774069 910.368211 113.079252 910.368211 113.079252 910.368211 112.567582 113.185066 910.262398 113.185066 910.262398zM830.547562 33.258604a112.567582 112.567582 0 1 1 159.641298 159.641297L192.835157 990.083047a112.567582 112.567582 0 1 1-159.641297-159.641298L830.718119 33.258604z" p-id="9612"></path></svg>