<?xml version="1.0" standalone="no"?><!DOCTYPE svg PUBLIC "-//W3C//DTD SVG 1.1//EN" "http://www.w3.org/Graphics/SVG/1.1/DTD/svg11.dtd"><svg class="icon" width="200px" height="200.00px" viewBox="0 0 1024 1024" version="1.1" xmlns="http://www.w3.org/2000/svg"><path d="M955.629376 24.127637c-30.712803-23.887736-88.725875-23.887736-88.725875-23.887736-54.600539-3.412534-187.689351 30.712803-187.689352 30.712803-10.237601 6.825067-3.412534 17.062668 6.825068 13.650135 23.887736-6.825067 68.250673 0 68.250673 3.412533 3.412534 13.650135 6.825067 6.825067 13.650135 17.062669 3.412534 3.412534 3.412534 13.650135 3.412533 13.650134s0 3.412534-3.412533 6.825068l-6.825068 6.825067c-54.600539-3.412534-228.639755 105.788544-242.28989 194.514419-3.412534 27.300269-6.825067 34.125337-6.825067 34.125336-47.775471 92.138409 30.712803 119.438678 37.53787 126.263746 3.412534 3.412534 10.237601 0 10.237601 0C477.874663 682.746634 344.785851 716.87197 344.785851 716.87197c-109.201077 27.300269-191.101885 81.900808-191.101886 81.900808s133.088813-44.362938 180.864285-51.188005c54.600539-10.237601-6.825067 17.062668-6.825068 17.062669-204.75202 92.138409-262.765092 139.91388-262.765092 139.91388-10.237601 10.237601 109.201077-58.013072 235.464823-85.313342 47.775471-10.237601 71.663207-10.237601 95.550942-13.650134 47.775471-3.412534 71.663207-17.062668 78.488275-17.062669 20.475202-3.412534 61.425606-13.650135-20.475202 37.537871C399.386389 860.198384 238.997307 887.498653 238.997307 887.498653s146.738948 10.237601 341.253366-126.263745c20.475202-13.650135 27.300269-23.887736 40.950404-23.887736 6.825067 0 23.887736-3.412534-17.062668 34.125337-75.075741 68.250673-245.702424 139.91388-245.702424 139.91388 129.676279-17.062668 259.352558-122.851212 259.352559-122.851212-27.300269 112.613611-184.276818 235.464823-184.276818 235.464823 129.676279-64.83814 259.352558-310.540563 259.352558-310.540563 71.663207-112.613611 81.900808-245.702424 81.900808-245.702424 0 6.825067 10.237601-10.237601 6.825067 13.650135 0 17.062668 13.650135 20.475202 13.650135 20.475202 20.475202 3.412534 0-20.475202 0-27.30027v-17.062668c-3.412534-23.887736 30.712803-95.550943 51.188005-153.564015 27.300269-68.250673 23.887736-122.851212 23.887736-122.851212-3.412534-88.725875-61.425606-102.37601-61.425606-102.37601-10.237601-3.412534-6.825067-17.062668-6.825068-17.062668s0-3.412534 3.412534-3.412534 6.825067-6.825067 6.825067-6.825067c3.412534-3.412534 3.412534-6.825067-3.412533-10.237601-3.412534-3.412534-6.825067-3.412534-10.237601-3.412534h-3.412534c27.300269-20.475202 119.438678-3.412534 119.438678-3.412533 47.775471 6.825067 40.950404-10.237601 40.950404-10.237601zM556.362938 450.694345s0-6.825067-10.237601-13.650135c0 0-54.600539-47.775471-23.887736-85.313342 0 0 6.825067-6.825067 13.650135-10.237601 6.825067-3.412534 13.650135 0 17.062668 13.650135 0 0 6.825067 40.950404 27.300269 30.712803 10.237601-3.412534-10.237601-10.237601-6.825067-20.475202 0 0 3.412534-6.825067-3.412534-10.237601-6.825067-6.825067-20.475202-17.062668-23.887735-27.300269 0 0-34.125337-75.075741 75.07574-116.026145 0 0 44.362938-17.062668 30.712803 10.237601-75.075741 109.201077-54.600539 187.689351-95.550942 228.639756z" fill="#cdcdcd" /></svg>