<?xml version="1.0" standalone="no"?><!DOCTYPE svg PUBLIC "-//W3C//DTD SVG 1.1//EN" "http://www.w3.org/Graphics/SVG/1.1/DTD/svg11.dtd"><svg t="1488372419997" class="icon" style="" viewBox="0 0 1024 1024" version="1.1" xmlns="http://www.w3.org/2000/svg" p-id="7864" xmlns:xlink="http://www.w3.org/1999/xlink" width="200" height="200"><defs><style type="text/css"></style></defs><path d="M851.411 82.079 512 421.49 172.589 82.079c-24.993-24.993-65.516-24.993-90.51 0s-24.993 65.516 0 90.51L421.49 512 82.079 851.411c-24.993 24.993-24.993 65.516 0 90.51 24.993 24.993 65.516 24.993 90.51 0L512 602.51l339.411 339.411c24.993 24.993 65.516 24.993 90.51 0 24.993-24.993 24.993-65.516 0-90.51L602.51 512l339.411-339.411c24.993-24.993 24.993-65.516 0-90.51C916.928 57.086 876.405 57.086 851.411 82.079z" p-id="7865" fill="#bfbfbf"></path></svg>