<?xml version="1.0" standalone="no"?><!DOCTYPE svg PUBLIC "-//W3C//DTD SVG 1.1//EN" "http://www.w3.org/Graphics/SVG/1.1/DTD/svg11.dtd"><svg class="icon" width="200px" height="200.00px" viewBox="0 0 1024 1024" version="1.1" xmlns="http://www.w3.org/2000/svg"><path d="M861.799 514.855c0 31.929-26.124 58.054-58.053 58.054L220.309 572.909c-31.93 0-58.054-26.125-58.054-58.054l0-29.013c0-31.929 26.124-58.053 58.054-58.053l583.438 0c31.93 0 58.053 26.124 58.053 58.053L861.8 514.855zM526.532 150.574c31.931 0 58.054 26.125 58.054 58.054l0 583.438c0 31.931-26.124 58.054-58.054 58.054l-29.011 0c-31.93 0-58.054-26.124-58.054-58.054L439.467 208.628c0-31.929 26.124-58.054 58.054-58.054L526.532 150.574z" fill="#1296db" /></svg>