<?xml version="1.0" standalone="no"?><!DOCTYPE svg PUBLIC "-//W3C//DTD SVG 1.1//EN" "http://www.w3.org/Graphics/SVG/1.1/DTD/svg11.dtd"><svg class="icon" width="200px" height="200.00px" viewBox="0 0 1024 1024" version="1.1" xmlns="http://www.w3.org/2000/svg"><path d="M922.448077 47.40567 132.175644 47.40567c-29.104026 0-52.685005 23.589274-52.685005 52.68183l0 790.242072c0 29.094605 23.580979 52.68183 52.685005 52.68183l790.272404 0c29.104026 0 52.685005-23.58825 52.685005-52.68183L975.133053 100.087533C975.133082 70.994944 951.552102 47.40567 922.448077 47.40567zM790.82199 293.653094 506.045645 757.757235c-9.894707 16.137523-26.959053 26.281574-45.66999 27.14624-0.875008 0.043008-1.731482 0.053248-2.590106 0.053248-17.750016 0-34.540032-8.421786-45.327155-22.87913L266.716262 566.730547c-18.951373-25.406669-14.010675-61.591757 11.010253-80.833024 25.07305-19.258573 60.694733-14.208614 79.645184 11.172454l95.85193 128.465818 241.079296-392.89129c16.600781-27.026534 51.637146-35.292774 78.325043-18.477875C799.277875 231.006208 807.421645 266.599936 790.82199 293.653094z" fill="#bfbfbf" /></svg>