<?xml version="1.0" standalone="no"?><!DOCTYPE svg PUBLIC "-//W3C//DTD SVG 1.1//EN" "http://www.w3.org/Graphics/SVG/1.1/DTD/svg11.dtd"><svg class="icon" width="200px" height="200.00px" viewBox="0 0 1024 1024" version="1.1" xmlns="http://www.w3.org/2000/svg"><path d="M512 97.333c-235.643 0-426.667 191.027-426.667 426.667s191.024 426.667 426.667 426.667c235.64 0 426.667-191.027 426.667-426.667s-191.027-426.667-426.667-426.667zM512 908c-212.08 0-384-171.925-384-384 0-212.077 171.92-384 384-384 212.075 0 384 171.923 384 384 0 212.075-171.925 384-384 384zM277.333 524c0 0 0 0 0 0 0 129.603 105.064 234.667 234.667 234.667 129.603 0 234.667-105.064 234.667-234.667 0 0 0 0 0 0 0-129.603-105.064-234.667-234.667-234.667-129.603 0-234.667 105.064-234.667 234.667z" fill="#bfbfbf" /></svg>