<?xml version="1.0" standalone="no"?><!DOCTYPE svg PUBLIC "-//W3C//DTD SVG 1.1//EN" "http://www.w3.org/Graphics/SVG/1.1/DTD/svg11.dtd"><svg class="icon" width="200px" height="200.00px" viewBox="0 0 1024 1024" version="1.1" xmlns="http://www.w3.org/2000/svg"><path d="M204.421996 274.651168h601.205459v601.205458H204.421996v-601.205458z m124.254458 143.60946c-11.505931 11.505339-11.505931 30.333279 0 41.838617l115.154652 115.154652-115.155244 115.155244c-11.505339 11.505339-11.505931 30.332687 0 41.838026l19.355002 19.355594c11.505339 11.505339 30.333279 11.505339 41.838025 0L505.024726 636.447517l115.155244 115.155244c11.505931 11.505339 30.333279 11.505339 41.838025 0l19.355594-19.355594c11.505931-11.505931 11.505339-30.333279 0-41.838026L566.218345 575.253897l115.154652-115.154652c11.505339-11.505339 11.505339-30.333279 0-41.838617l-19.355594-19.355002c-11.505931-11.505931-30.332687-11.505339-41.838025 0L505.024726 514.06087 389.869481 398.905626c-11.505339-11.505339-30.332095-11.505931-41.838025 0l-19.355002 19.355002z" fill="#bfbfbf" /></svg>