<?xml version="1.0" standalone="no"?><!DOCTYPE svg PUBLIC "-//W3C//DTD SVG 1.1//EN" "http://www.w3.org/Graphics/SVG/1.1/DTD/svg11.dtd"><svg class="icon" width="200px" height="200.00px" viewBox="0 0 1024 1024" version="1.1" xmlns="http://www.w3.org/2000/svg"><path d="M513.22794 242.620566c-85.751174 0-155.539123 68.355351-155.539123 152.469272s69.787948 152.469272 155.539123 152.469272c85.751174 0 155.436794-68.355351 155.436794-152.469272S598.979115 242.620566 513.22794 242.620566zM513.22794 496.497252c-56.996902 0-103.453982-45.433796-103.453982-101.407415 0-55.87129 46.45708-101.407415 103.453982-101.407415 56.996902 0 103.351654 45.536125 103.351654 101.407415C616.681923 450.961127 570.224843 496.497252 513.22794 496.497252z" fill="#bfbfbf" /><path d="M513.023284 945.411812c-13.712002 0-28.8566-6.037374-46.150095-18.521435-13.609673-9.823524-28.8566-23.637854-45.22914-41.238333-32.233437-34.586989-67.434396-82.067353-99.156191-133.640851C287.184571 694.604977 257.407015 634.231238 236.327371 577.336664c-24.865794-67.229739-37.554512-128.626761-37.554512-182.246827 0-83.909264 32.64275-162.804437 91.993205-222.154892 59.350455-59.350455 138.245628-91.993205 222.154892-91.993205s162.804437 32.64275 222.154892 91.993205c59.350455 59.350455 91.993205 138.245628 91.993205 222.154892 0 53.620066-12.688718 115.017088-37.759169 182.349156C768.332567 634.231238 738.452683 694.604977 703.047067 752.011192c-31.721795 51.47117-66.922754 98.951534-99.156191 133.538523-16.270211 17.498151-31.41481 31.41481-45.024483 41.238333C541.572899 939.374438 526.632957 945.411812 513.023284 945.411812zM513.023284 133.12921c-69.992605 0-135.789747 27.219346-185.21435 76.746278-49.526931 49.526931-76.746278 115.324073-76.746278 185.21435 0 88.309383 41.238333 206.805636 113.175177 325.19956 29.368242 48.298991 61.908664 92.91416 91.788548 125.761567 32.745078 35.917258 51.675827 46.047767 56.894574 47.173379 5.218747-1.22794 24.149495-11.563106 56.894574-47.68502 29.879884-32.949735 62.522634-77.667233 91.788548-125.863895C733.745578 601.281503 774.983911 482.989907 774.983911 395.089837c0-69.992605-27.219346-135.789747-76.746278-185.21435C648.813031 160.348556 583.015889 133.12921 513.023284 133.12921z" fill="#bfbfbf" /></svg>