<?xml version="1.0" standalone="no"?><!DOCTYPE svg PUBLIC "-//W3C//DTD SVG 1.1//EN" "http://www.w3.org/Graphics/SVG/1.1/DTD/svg11.dtd"><svg class="icon" width="200px" height="200.00px" viewBox="0 0 1024 1024" version="1.1" xmlns="http://www.w3.org/2000/svg"><path d="M527.182656 634.035385c215.427859 0 390.0922 174.472963 390.0922 389.964615l73.106404 0c0-199.671069-126.628458-369.423374-303.780713-434.491901 93.839023-55.053077 157.504112-155.909295 157.504112-272.586095C844.10466 141.874907 702.229753 0 527.182656 0c-175.11089 0-317.049589 141.874907-317.049589 316.985796 0 116.6768 63.728881 217.533018 157.567904 272.586095-177.152255 65.068527-303.844505 234.820832-303.844505 434.491901l73.170197 0C137.090456 808.572141 311.754797 634.035385 527.182656 634.035385zM283.367057 316.985796c0-134.602542 109.149265-243.815599 243.879392-243.815599s243.815599 109.213058 243.815599 243.815599S661.912783 560.801395 527.182656 560.801395 283.367057 451.652131 283.367057 316.985796z" fill="#bfbfbf" /></svg>