<?xml version="1.0" standalone="no"?><!DOCTYPE svg PUBLIC "-//W3C//DTD SVG 1.1//EN" "http://www.w3.org/Graphics/SVG/1.1/DTD/svg11.dtd"><svg class="icon" width="200px" height="200.00px" viewBox="0 0 1024 1024" version="1.1" xmlns="http://www.w3.org/2000/svg"><path d="M64 512c0-247.424 200.576-448 448-448s448 200.576 448 448-200.576 448-448 448S64 759.424 64 512zM0 512c0 282.752 229.248 512 512 512 282.752 0 512-229.248 512-512 0-282.752-229.248-512-512-512C229.248 0 0 229.248 0 512zM891.904 454.4C864 269.696 704.512 128 512 128l0 64c158.72 0 290.752 115.52 315.904 267.2C811.136 470.72 800 490.176 800 512c0 35.328 28.608 64 64 64s64-28.672 64-64C928 486.592 913.344 464.704 891.904 454.4z" fill="#bfbfbf" /></svg>