<?xml version="1.0" standalone="no"?><!DOCTYPE svg PUBLIC "-//W3C//DTD SVG 1.1//EN" "http://www.w3.org/Graphics/SVG/1.1/DTD/svg11.dtd"><svg t="1488712708771" class="icon" style="" viewBox="0 0 1024 1024" version="1.1" xmlns="http://www.w3.org/2000/svg" p-id="4293" xmlns:xlink="http://www.w3.org/1999/xlink" width="16" height="16"><defs><style type="text/css"></style></defs><path d="M401.506529 793.687973l-0.087973 0c0 33.165636 26.919588 60.085223 60.085223 60.085223l100.112715 0c33.165636 0 60.085223-26.919588 60.085223-60.085223 0-1.935395 0-1.935395 0-9.764948 0-10.028866 0-10.028866 0-22.872852 0-5.366323 0-5.366323 0-10.820619 0-16.802749 0-29.558763 0-36.860481 0-0.439863 4.22268-5.718213 12.052234-11.612371 3.694845-2.81512 7.829553-5.454296 11.876289-7.829553 2.46323-1.40756 4.22268-2.375258 5.102405-2.81512l2.375258-1.40756c67.562887-46.361512 108.821993-122.897595 108.821993-206.471478 0-138.204811-111.989003-250.193814-250.193814-250.193814C373.355326 233.127148 261.278351 345.204124 261.278351 483.320962c0 83.485911 41.171134 160.021993 108.734021 206.383505l2.375258 1.40756c0.879725 0.439863 2.727148 1.40756 5.102405 2.81512 4.046735 2.375258 8.181443 5.014433 11.876289 7.829553 7.829553 5.894158 12.052234 11.172509 12.052234 11.612371L401.418557 793.687973" p-id="4294"></path><path d="M519.917526 873.742955l-56.302405 0c-11.084536 0-20.057732 8.973196-20.057732 20.057732s8.973196 20.057732 20.057732 20.057732l56.302405 0L519.917526 873.742955z" p-id="4295"></path><path d="M557.569759 873.742955 502.323024 873.742955l0 40.027491 55.246735 0c11.084536 0 20.057732-8.973196 20.057732-20.057732S568.654296 873.742955 557.569759 873.742955z" p-id="4296"></path><path d="M231.80756 466.958076c0 6.773883-5.454296 12.316151-12.228179 12.404124l-77.415808 0.263918c-6.773883 0-12.316151-5.454296-12.404124-12.228179l0-8.797251c0-6.773883 5.454296-12.316151 12.228179-12.404124l77.415808-0.263918c6.773883 0 12.316151 5.454296 12.404124 12.228179L231.80756 466.958076z" p-id="4297"></path><path d="M896.879725 466.958076c0 6.773883-5.454296 12.316151-12.228179 12.404124l-77.415808 0.263918c-6.773883 0-12.316151-5.454296-12.404124-12.228179l0-8.797251c0-6.773883 5.454296-12.316151 12.228179-12.404124l77.415808-0.263918c6.773883 0 12.316151 5.454296 12.404124 12.228179L896.879725 466.958076z" p-id="4298"></path><path d="M285.998625 661.905155c3.342955 5.894158 1.319588 13.459794-4.662543 16.802749l-67.298969 38.180069c-5.894158 3.342955-13.459794 1.319588-16.802749-4.662543l-4.310653-7.653608c-3.342955-5.894158-1.319588-13.459794 4.662543-16.802749l67.298969-38.180069c5.894158-3.342955 13.459794-1.319588 16.802749 4.662543L285.998625 661.905155z" p-id="4299"></path><path d="M299.458419 289.253608c-4.662543 4.92646-12.404124 5.190378-17.418557 0.527835l-56.478351-52.95945c-4.92646-4.662543-5.190378-12.404124-0.527835-17.418557l5.982131-6.421993c4.662543-4.92646 12.404124-5.190378 17.418557-0.527835l56.478351 52.95945c4.92646 4.662543 5.190378 12.404124 0.527835 17.418557L299.458419 289.253608z" p-id="4300"></path><path d="M746.798625 661.905155c-3.342955 5.894158-1.319588 13.459794 4.662543 16.802749l67.298969 38.180069c5.894158 3.342955 13.459794 1.319588 16.802749-4.662543l4.310653-7.653608c3.342955-5.894158 1.319588-13.459794-4.662543-16.802749l-67.298969-38.180069c-5.894158-3.342955-13.459794-1.319588-16.802749 4.662543L746.798625 661.905155z" p-id="4301"></path><path d="M733.338832 289.253608c4.662543 4.92646 12.404124 5.190378 17.418557 0.527835l56.478351-52.95945c4.92646-4.662543 5.190378-12.404124 0.527835-17.418557l-5.982131-6.421993c-4.662543-4.92646-12.404124-5.190378-17.418557-0.527835l-56.478351 52.95945c-4.92646 4.662543-5.190378 12.404124-0.527835 17.418557L733.338832 289.253608z" p-id="4302"></path><path d="M507.513402 208.67079c-6.773883 0.087973-12.404124-5.454296-12.404124-12.228179l-0.615808-77.415808c-0.087973-6.773883 5.454296-12.404124 12.228179-12.404124l8.797251-0.087973c6.773883-0.087973 12.316151 5.454296 12.404124 12.228179l0.615808 77.415808c0.087973 6.773883-5.454296 12.404124-12.228179 12.404124L507.513402 208.67079z" p-id="4303"></path></svg>