<?xml version="1.0" standalone="no"?><!DOCTYPE svg PUBLIC "-//W3C//DTD SVG 1.1//EN" "http://www.w3.org/Graphics/SVG/1.1/DTD/svg11.dtd"><svg class="icon" width="200px" height="200.00px" viewBox="0 0 1024 1024" version="1.1" xmlns="http://www.w3.org/2000/svg"><path d="M736 512 768 512l32 0L800 117.376l181.376 181.248L1024 256l-213.376-213.312L800 32 800 0 768 0l-32 0 0 32-10.624 10.688L511.936 256l42.688 42.688L736 117.376 736 512zM575.936 768c0-106.048 86.08-192 192.064-192s192 85.952 192 192c0 105.984-86.016 192-192 192S575.936 873.984 575.936 768zM1024 768c0-141.376-114.624-256-256-256s-256.064 114.688-256.064 256S626.624 1024 768 1024 1024 909.376 1024 768zM287.936 512l-32 0-32 0 0 192-160 0 0 64 160 0 0 256 64 0 0-256 160 0 0-64-160 0L287.936 512zM63.936 256c0-106.048 85.952-192 192-192s192 85.952 192 192-85.952 192-192 192S63.936 361.984 63.936 256zM-0.064 256c0 141.376 114.624 256 256 256s256-114.624 256-256-114.624-256-256-256S-0.064 114.624-0.064 256z" fill="#bfbfbf" /></svg>