<?xml version="1.0" standalone="no"?><!DOCTYPE svg PUBLIC "-//W3C//DTD SVG 1.1//EN" "http://www.w3.org/Graphics/SVG/1.1/DTD/svg11.dtd"><svg class="icon" width="200px" height="200.00px" viewBox="0 0 1024 1024" version="1.1" xmlns="http://www.w3.org/2000/svg"><path d="M805.237677 7.225005 218.769548 7.225005c-24.29408 0-43.985832 19.691752-43.985832 43.985832l0 920.021336c0 24.301305 19.691752 43.993057 43.985832 43.993057l586.46813 0c24.29408 0 43.985832-19.691752 43.985832-43.993057L849.223509 51.210838C849.223509 26.916757 829.528145 7.225005 805.237677 7.225005L805.237677 7.225005zM805.237677 51.210838l0 718.425626L218.769548 769.636464 218.769548 51.210838 805.237677 51.210838 805.237677 51.210838zM218.769548 971.232174l0-157.609878 586.46813 0 0 157.609878L218.769548 971.232174 218.769548 971.232174zM460.6844 886.938037c0 13.427672 5.534354 26.77587 15.028011 36.287589 9.504494 9.490044 22.852692 15.028011 36.283977 15.028011 13.442122 0 26.79032-5.537967 36.287589-15.028011 9.504494-9.511719 15.031624-22.859917 15.031624-36.287589 0-13.442122-5.527129-26.797545-15.031624-36.287589-9.497269-9.504494-22.845467-15.028011-36.287589-15.028011-13.431285 0-26.783095 5.523517-36.283977 15.028011C466.222366 860.140492 460.6844 873.495915 460.6844 886.938037L460.6844 886.938037zM460.6844 886.938037" fill="#bfbfbf" /></svg>