<?xml version="1.0" standalone="no"?><!DOCTYPE svg PUBLIC "-//W3C//DTD SVG 1.1//EN" "http://www.w3.org/Graphics/SVG/1.1/DTD/svg11.dtd"><svg t="1486998781199" class="icon" style="" viewBox="0 0 1024 1024" version="1.1" xmlns="http://www.w3.org/2000/svg" p-id="2749" xmlns:xlink="http://www.w3.org/1999/xlink" width="200" height="200"><defs><style type="text/css"></style></defs><path d="M512 63.84C264.488 63.84 63.84 264.488 63.84 512S264.488 960.16 512 960.16 960.16 759.511 960.16 512 759.511 63.84 512 63.84z m70.437 532.412c-54.674 64.926-134.773 118.164-257.804 90.905-20.023-4.436-126.432-99.095-10.254-181.103 13.668-6.833 64.925-47.839 239.195 20.502 13.67-27.335 34.17-88.842 34.17-92.26H351.966v-20.502h116.181v-47.841H331.465v-20.501h136.682v-71.759h68.34v71.759h150.351v20.5h-150.35v47.842h126.431s-13.668 64.922-51.256 133.265c71.758 23.92 153.008 54.856 180.345 54.856l21.938 105.743S585.852 599.671 582.437 596.252z" fill="#bfbfbf" p-id="2750"></path><path d="M314.38 536.806c-51.254 23.92-37.586 99.095 3.417 109.345 17.086 6.836 119.596 41.006 205.022-68.34 0 0 3.418-3.417 6.836-10.25-54.674-27.337-129.85-58.089-215.276-30.755z" fill="#bfbfbf" p-id="2751"></path></svg>