<?xml version="1.0" standalone="no"?><!DOCTYPE svg PUBLIC "-//W3C//DTD SVG 1.1//EN" "http://www.w3.org/Graphics/SVG/1.1/DTD/svg11.dtd"><svg class="icon" width="200px" height="200.00px" viewBox="0 0 1024 1024" version="1.1" xmlns="http://www.w3.org/2000/svg"><path d="M920.630724 923.502122c-10.476609 10.289344-27.504424 10.289344-37.981033 0L667.709341 711.968357c-59.987233 47.863101-136.334062 76.680427-219.584114 76.680427C255.473509 788.648784 99.282191 634.954333 99.282191 445.282482 99.282191 255.67817 255.473509 101.986789 448.125227 101.986789c192.674231 0 348.866572 153.691381 348.866572 343.295694 0 88.678692-34.458813 169.242566-90.515526 230.132354l214.153428 210.700793C931.110403 896.448976 931.110403 913.14524 920.630724 923.502122L920.630724 923.502122 920.630724 923.502122zM448.125227 154.852834c-162.978908 0-295.215652 130.067334-295.215652 290.428625 0 160.453389 132.236743 290.523793 295.215652 290.523793 163.072029 0 295.239188-130.070404 295.239188-290.523793C743.364415 284.921191 611.19828 154.852834 448.125227 154.852834L448.125227 154.852834 448.125227 154.852834zM448.125227 154.852834" fill="#bfbfbf" /></svg>