<?xml version="1.0" standalone="no"?><!DOCTYPE svg PUBLIC "-//W3C//DTD SVG 1.1//EN" "http://www.w3.org/Graphics/SVG/1.1/DTD/svg11.dtd"><svg t="1486784852435" class="icon" style="" viewBox="0 0 1024 1024" version="1.1" xmlns="http://www.w3.org/2000/svg" p-id="2017" xmlns:xlink="http://www.w3.org/1999/xlink" width="200" height="200"><defs><style type="text/css"></style></defs><path d="M854.869333 0l-707.047619 0C48.761905 0 48.761905 97.52381 48.761905 97.52381l0 828.952381c0 0 0 97.52381 100.571429 97.52381 0 0 559.250286 0 585.142857 0L950.857143 853.333333 950.857143 97.52381C950.857143 97.52381 949.345524 0 854.869333 0zM902.095238 828.952381l-195.047619 146.285714c-24.380952 0-536.380952 0-536.380952 0-73.142857 0-73.142857-73.142857-73.142857-73.142857L97.52381 121.904762c0 0 0-73.142857 73.142857-73.142857 48.761905 0 658.285714 0 658.285714 0 73.142857 0 73.142857 73.142857 73.142857 73.142857L902.095238 828.952381z" p-id="2018" fill="#bfbfbf"></path><path d="M219.428571 536.380952l560.761905 0 0 48.761905-560.761905 0 0-48.761905Z" p-id="2019" fill="#bfbfbf"></path><path d="M219.428571 341.333333l560.761905 0 0 48.761905-560.761905 0 0-48.761905Z" p-id="2020" fill="#bfbfbf"></path><path d="M219.428571 146.285714l268.190476 0 0 48.761905-268.190476 0 0-48.761905Z" p-id="2021" fill="#bfbfbf"></path><path d="M853.333333 707.047619 682.666667 707.047619 633.904762 707.047619 633.904762 755.809524 633.904762 926.47619 682.666667 926.47619 682.666667 755.809524 853.333333 755.809524Z" p-id="2022" fill="#bfbfbf"></path></svg>