<?xml version="1.0" standalone="no"?><!DOCTYPE svg PUBLIC "-//W3C//DTD SVG 1.1//EN" "http://www.w3.org/Graphics/SVG/1.1/DTD/svg11.dtd"><svg class="icon" width="200px" height="200.00px" viewBox="0 0 1024 1024" version="1.1" xmlns="http://www.w3.org/2000/svg"><path d="M827.050667 0l-630.101333 0C88.32 0 0 88.32 0 196.949333l0 630.186667C0 935.68 88.32 1024 196.949333 1024l630.101333 0C935.68 1024 1024 935.68 1024 827.050667L1024 196.949333C1024 88.32 935.68 0 827.050667 0zM945.237333 827.050667c0 65.194667-52.992 118.186667-118.186667 118.186667l-630.101333 0c-65.194667 0-118.186667-52.992-118.186667-118.186667L78.762667 196.949333c0-65.194667 52.992-118.186667 118.186667-118.186667l630.101333 0c65.194667 0 118.186667 52.992 118.186667 118.186667L945.237333 827.050667z" fill="#8a8a8a" /><path d="M826.197333 472.576l-274.858667 0L551.338667 197.717333c0-21.76-17.578667-39.424-39.424-39.424s-39.424 17.578667-39.424 39.424l0 274.858667-274.858667 0c-21.76 0-39.424 17.578667-39.424 39.424s17.578667 39.424 39.424 39.424l274.858667 0 0 274.858667c0 21.76 17.578667 39.424 39.424 39.424s39.424-17.578667 39.424-39.424L551.338667 551.424l274.858667 0c21.76 0 39.424-17.578667 39.424-39.424S847.957333 472.576 826.197333 472.576z" fill="#8a8a8a" /></svg>