<?xml version="1.0" standalone="no"?><!DOCTYPE svg PUBLIC "-//W3C//DTD SVG 1.1//EN" "http://www.w3.org/Graphics/SVG/1.1/DTD/svg11.dtd"><svg class="icon" width="200px" height="200.00px" viewBox="0 0 1024 1024" version="1.1" xmlns="http://www.w3.org/2000/svg"><path d="M414.378 463.6723H111.57811199999999c-26.708 0-48.4475-21.7283-48.4475-48.4475V112.425984c0-26.7192 21.7395-48.4475 48.4475-48.4475h302.799872c26.708 0 48.4475 21.7283 48.4475 48.4475V415.22483200000005C462.8255 441.9441 441.0849 463.6723 414.378 463.6723zM111.5781 112.426V415.22483200000005h302.823424l-0.0236-302.7988H111.57811199999999z" fill="#bfbfbf" /><path d="M910.9658 463.6723h-302.7968c-26.708 0-48.4475-21.7283-48.4475-48.4475V112.425984c0-26.7192 21.7395-48.4475 48.4475-48.4475h302.7968c26.708 0 48.4475 21.7283 48.4475 48.4475V415.22483200000005C959.4132 441.9441 937.6737 463.6723 910.9658 463.6723zM608.169 112.426V415.22483200000005h302.821376l-0.0236-302.7988H608.16896z" fill="#bfbfbf" /><path d="M414.378 960.2621H111.57811199999999c-26.708 0-48.4475-21.7395-48.4475-48.4475V609.014784c0-26.7069 21.7395-48.4475 48.4475-48.4475h302.799872c26.708 0 48.4475 21.7395 48.4475 48.4475v302.798848C462.8255 938.5226 441.0849 960.2621 414.378 960.2621zM111.5781 609.0148v302.798848h302.84697600000004l-0.0471-302.7988H111.57811199999999z" fill="#bfbfbf" /><path d="M910.9658 960.2621h-302.7968c-26.708 0-48.4475-21.7395-48.4475-48.4475V609.014784c0-26.7069 21.7395-48.4475 48.4475-48.4475h302.7968c26.708 0 48.4475 21.7395 48.4475 48.4475v302.798848C959.4132 938.5226 937.6737 960.2621 910.9658 960.2621zM608.169 609.0148v302.798848H911.014912l-0.0492-302.7988H608.16896z" fill="#bfbfbf" /></svg>