<?xml version="1.0" standalone="no"?><!DOCTYPE svg PUBLIC "-//W3C//DTD SVG 1.1//EN" "http://www.w3.org/Graphics/SVG/1.1/DTD/svg11.dtd"><svg class="icon" width="200px" height="200.00px" viewBox="0 0 1024 1024" version="1.1" xmlns="http://www.w3.org/2000/svg"><path d="M512.714496 538.780832c-150.57998 0-273.090483-120.851853-273.090483-269.390416S362.134516 0 512.714496 0C663.294475 0 785.804979 120.851853 785.804979 269.390416S663.294475 538.780832 512.714496 538.780832zM512.714496 38.123452c-129.55339 0-234.941514 103.729472-234.941514 231.266964s105.413641 231.266964 234.941514 231.266964c129.55339 0 234.967031-103.729472 234.967031-231.266964S642.267886 38.123452 512.714496 38.123452z" fill="#bfbfbf" /><path d="M606.976899 1024l-188.49929 0c-189.443445 0-339.079269 0-339.079269-111.818585l0-18.551372c0-184.314386 152.111042-334.256423 339.079269-334.256423l188.49929 0c186.968227 0 339.079269 149.942037 339.079269 334.256423l0 18.551372C946.030651 1024 788.892621 1024 606.976899 1024zM418.47761 597.52259c-165.941638 0-300.955817 132.845174-300.955817 296.132971l0 18.551372c0 70.122654 114.344838 73.669615 300.955817 73.669615l188.49929 0c154.764883 0 300.9303 0 300.955817-73.669615l0-18.551372c0-163.287797-135.014179-296.132971-300.955817-296.132971L418.47761 597.52259z" fill="#bfbfbf" /></svg>