<?xml version="1.0" standalone="no"?><!DOCTYPE svg PUBLIC "-//W3C//DTD SVG 1.1//EN" "http://www.w3.org/Graphics/SVG/1.1/DTD/svg11.dtd"><svg t="1488708790398" class="icon" style="" viewBox="0 0 1024 1024" version="1.1" xmlns="http://www.w3.org/2000/svg" p-id="4695" xmlns:xlink="http://www.w3.org/1999/xlink" width="16" height="16"><defs><style type="text/css"></style></defs><path d="M444.997283 580.042039c51.563763 51.295551 111.274466 100.344825 134.709492 76.641587 33.56003-33.861769 54.212356-63.365092 128.674721-3.855548 74.462365 59.576597 17.601414 99.640769-14.919294 132.463216-37.516158 37.884949-177.992208 2.648594-317.227777-135.815866C237.032381 510.943915 200.79023 370.434338 238.339914 332.549389c32.520709-32.822447 72.081983-90.119242 132.027371-15.925089 59.945388 74.160626 30.710277 95.114691-2.849753 128.976459C344.082507 469.270471 393.43352 528.712962 444.997283 580.042039L444.997283 580.042039zM519.794912 335.23151c0 0-15.556298-2.413908-26.452411 8.515732-11.231379 11.231379-11.70075 30.576171 0.10058 42.444554 6.973513 7.007039 16.830305 8.482205 16.830305 8.482205 19.210687 3.587336 48.144059 9.722686 78.92139 40.567069 30.77733 30.844383 36.879154 59.844809 40.46649 79.089022 0 0 1.508693 9.890319 8.482205 16.863831 11.801329 11.834856 31.146122 11.331958 42.343974 0.134106 10.896114-10.92964 8.482205-26.552991 8.482205-26.552991-6.101824-38.957797-24.943719-79.658973-57.296795-112.079102C599.286252 360.242281 558.685656 341.36686 519.794912 335.23151L519.794912 335.23151zM665.769309 358.53243c56.425106 56.525685 80.497135 120.72894 72.651933 172.728547 0 0-2.715647 16.49504 8.012834 27.257047 12.069541 12.103068 31.246701 11.399011 42.545133 0.10058 7.275251-7.308778 8.850997-19.143634 8.850997-19.143634 6.470615-44.959041-1.676325-135.380022-89.582818-223.487673-87.940019-88.107652-178.15984-96.254592-222.984776-89.783977 0 0-11.801329 1.575746-19.076581 8.850997-11.298432 11.331958-12.002488 30.542645 0.10058 42.645713 10.728481 10.762008 27.156468 8.012834 27.156468 8.012834C545.275055 277.834135 609.310677 301.973218 665.769309 358.53243L665.769309 358.53243zM665.769309 358.53243" p-id="4696"></path></svg>