<?xml version="1.0" standalone="no"?><!DOCTYPE svg PUBLIC "-//W3C//DTD SVG 1.1//EN" "http://www.w3.org/Graphics/SVG/1.1/DTD/svg11.dtd"><svg t="1488708491123" class="icon" style="" viewBox="0 0 1024 1024" version="1.1" xmlns="http://www.w3.org/2000/svg" p-id="4031" xmlns:xlink="http://www.w3.org/1999/xlink" width="16" height="16"><defs><style type="text/css"></style></defs><path d="M383.690787 705.021838a27.706337 27.706337 0 0 0-11.448062 6.909178c-10.956597 10.970931-10.956597 28.908378 0 39.864975l10.580831 10.580831 95.961604 95.975938c5.493145 5.477786 12.719727 8.209513 19.931976 8.209513 0.794535 0 1.590094-0.028669 2.384629-0.101365 6.417713-0.534468 12.676724-3.237525 17.547346-8.109171 10.970931-10.970931 10.970931-28.908378 0-39.864976l-17.547346-17.547346-38.549283-38.563617-50.444782-50.444782a27.701217 27.701217 0 0 0-11.448062-6.909178h-16.968851z" fill="#666666" p-id="4032"></path><path d="M168.640056 157.437727c-45.906922 0-83.473275 37.566353-83.473275 83.473275v437.992545c0 45.906922 37.566353 83.473275 83.473275 83.473275h288.130546c3.192474 0 3.952197-1.829683 1.69453-4.08735l-46.357432-46.357432a27.794391 27.794391 0 0 0-6.14024-4.642296c-2.790088-1.554258-7.896204-2.266882-11.089702-2.266883h-226.237702c-14.151119 0-26.103956-11.968196-26.103956-26.119314V240.909978c0-14.151119 11.953861-26.103956 26.103956-26.103956H855.90977c14.151119 0 26.103956 11.953861 26.103956 26.103956v437.992545c0 14.151119-11.953861 26.119315-26.103956 26.119315H607.326795c-3.192474 0-8.299614 0.713648-11.089702 2.266882a27.794391 27.794391 0 0 0-6.14024 4.642296l-50.444782 50.444782-38.549283 38.563617-17.547346 17.547346c-10.970931 10.956597-10.970931 28.894044 0 39.864976 4.870622 4.870622 11.129633 7.57368 17.547346 8.109171 0.794535 0.072696 1.590094 0.101365 2.384629 0.101365 7.212248 0 14.439855-2.731726 19.931976-8.209513l91.874254-91.88654c2.257667-2.257667 6.676756-4.089398 9.869231-4.089398h230.747916c45.906922 0 83.458941-37.566353 83.458941-83.473275V240.909978c0-45.906922-37.552018-83.473275-83.458941-83.473275H168.640056z" fill="#666666" p-id="4033"></path><path d="M285.638408 466.41253c-0.008191 24.891676 20.164398 45.076551 45.05505 45.083718 24.891676 0.008191 45.076551-20.164398 45.083719-45.055049v-0.028669c0.008191-24.891676-20.164398-45.076551-45.05505-45.083719-24.891676-0.008191-45.076551 20.164398-45.083719 45.05505v0.028669zM649.01531 468.089654c0 23.889292 20.178732 43.256083 45.069385 43.256083 24.891676 0 45.069384-19.365767 45.069384-43.256083 0-23.889292-20.178732-43.256083-45.069384-43.256083-24.890652 0-45.069384 19.365767-45.069385 43.256083zM467.19785 469.302958c0 24.891676 20.178732 45.069384 45.069384 45.069384 24.891676 0 45.069384-20.178732 45.069384-45.069384 0.008191-24.891676-20.164398-45.076551-45.05505-45.083719-24.891676-0.008191-45.076551 20.164398-45.083718 45.05505v0.028669z" fill="#666666" p-id="4034"></path></svg>