<?xml version="1.0" standalone="no"?><!DOCTYPE svg PUBLIC "-//W3C//DTD SVG 1.1//EN" "http://www.w3.org/Graphics/SVG/1.1/DTD/svg11.dtd"><svg class="icon" width="200px" height="200.00px" viewBox="0 0 1024 1024" version="1.1" xmlns="http://www.w3.org/2000/svg"><path d="M360.488705 706.738239c7.138877 7.137561 18.70271 7.137561 25.84261 0l455.060399-546.397415c7.1399-7.138584 7.1399-18.720364 0-25.858948-7.1399-7.120165-18.703734-7.120165-25.841587 0L360.488705 680.895665C353.349828 688.034249 353.349828 699.598632 360.488705 706.738239zM829.380677 512c-10.084072 0-18.275974 8.17417-18.275974 18.275225l0 292.390303c0 20.166295-16.365383 36.549427-36.548878 36.549427l-548.258759 0c-20.184518 0-36.549902-16.383132-36.549902-36.549427L189.747163 274.43128c0-20.202111 16.365383-36.548404 36.549902-36.548404l255.853405 0c10.084072 0 18.274951-8.191566 18.274951-18.274202 0-10.101055-8.190878-18.274202-18.274951-18.274202L226.297065 201.334471c-40.37006 0-73.100827 32.730449-73.100827 73.097832l0 548.234249c0 40.368406 32.730767 73.098855 73.100827 73.098855l548.258759 0c40.368014 0 73.099803-32.729425 73.099803-73.098855L847.655627 530.275225C847.655627 520.17417 839.464749 512 829.380677 512z" /></svg>