<?xml version="1.0" standalone="no"?><!DOCTYPE svg PUBLIC "-//W3C//DTD SVG 1.1//EN" "http://www.w3.org/Graphics/SVG/1.1/DTD/svg11.dtd"><svg t="1488717462184" class="icon" style="" viewBox="0 0 1024 1024" version="1.1" xmlns="http://www.w3.org/2000/svg" p-id="11185" xmlns:xlink="http://www.w3.org/1999/xlink" width="16" height="16"><defs><style type="text/css"></style></defs><path d="M947.898765 341.389274 807.199279 482.09183l-64.98506-70.900793-0.911766 0.835018L596.510766 267.236414 227.380684 636.369565l159.578462 159.575392L701.183733 481.719346l50.868551 55.517431L372.051621 917.239488 106.0882 917.239488 106.0882 651.276067 681.935344 75.425853c6.231935-6.228865 14.388708-9.269108 22.556739-9.269108 8.181333 0 16.35141 3.040243 22.583344 9.269108l220.824361 220.826408c6.231935 6.228865 9.274224 14.385639 9.274224 22.566972C957.172989 326.97703 954.130699 335.160409 947.898765 341.389274zM185.877431 837.44821l129.763412 0L185.877431 707.686844 185.877431 837.44821zM704.505385 159.241794l-51.583842 51.585889 159.578462 159.575392 51.583842-51.583842L704.505385 159.241794z" p-id="11186"></path></svg>