<?xml version="1.0" standalone="no"?><!DOCTYPE svg PUBLIC "-//W3C//DTD SVG 1.1//EN" "http://www.w3.org/Graphics/SVG/1.1/DTD/svg11.dtd"><svg class="icon" width="200px" height="190.69px" viewBox="0 0 1074 1024" version="1.1" xmlns="http://www.w3.org/2000/svg"><path d="M830.415968 249.959218c-0.074603-0.080735-0.149206-0.158403-0.219721-0.242204C830.266762 249.79877 830.341365 249.879505 830.415968 249.959218z" fill="#36ab60" /><path d="M911.291529 390.171593c-0.896255-2.75315-2.018363-5.395928-2.973892-8.121485C909.278275 384.775665 910.389142 387.418443 911.291529 390.171593z" fill="#36ab60" /><path d="M896.592735 352.066938c-0.84618-1.903904-1.826236-3.727074-2.704096-5.612583C894.769565 348.339864 895.740423 350.1661 896.592735 352.066938z" fill="#36ab60" /><path d="M855.861653 281.551968c-0.341333-0.468056-0.701062-0.920782-1.042395-1.388838C855.160591 280.631186 855.520319 281.083912 855.861653 281.551968z" fill="#36ab60" /><path d="M928.461413 470.374707c-0.378124-3.609549-1.150723-7.095441-1.62491-10.673309C927.313756 463.279265 928.082267 466.762092 928.461413 470.374707z" fill="#36ab60" /><path d="M921.952575 429.677349c-0.728655-3.435816-1.789445-6.738778-2.608032-10.139848C920.169261 422.939593 921.216766 426.241533 921.952575 429.677349z" fill="#36ab60" /><path d="M878.034012 315.727202c-0.635657-1.100647-1.333653-2.158371-1.978507-3.252886C876.703425 313.56883 877.394267 314.626555 878.034012 315.727202z" fill="#36ab60" /><path d="M677.3341 357.379066l-122.161565 165.444471c-17.262882 28.0762-24.779369 43.239984-46.238403 43.239984-23.762523 0-43.028439-19.265916-43.028439-43.028439 0-19.454978 12.276758-27.207537 30.705693-41.028471L677.3341 357.379066z" fill="#36ab60" /><path d="M542.945852 118.145277 542.945852 88.872367l0-0.050076L542.945852 118.145277c-2.158371-0.033725-4.254403-0.322938-6.421972-0.322938C538.691449 117.822339 540.787481 118.110531 542.945852 118.145277z" fill="#36ab60" /><path d="M516.71224 276.62103c-14.499513 0-26.233613-11.7341-26.233613-26.233613L490.478627 120.733892c15.132104-1.764918 30.445094-2.911553 46.046275-2.911553 2.167569 0 4.263601 0.288192 6.421972 0.322938l0 132.243162C542.945852 264.887952 531.211752 276.62103 516.71224 276.62103z" fill="#36ab60" /><path d="M536.52388 67.451146c2.167569 0 4.263601 0.291257 6.421972 0.322938l0 21.099305c-0.009198-0.620327-0.483385 23.390531-0.614196 22.351202 0.56412-10.37592-4.998387-20.518834-14.98392-25.186108l-36.870132 17.232224 0 17.464208C294.517525 143.572567 142.354395 309.907162 142.354395 512.002044c0 217.691976 176.477509 394.172551 394.169485 394.172551 217.698108 0 394.176639-176.480575 394.176639-394.179705 0-14.066204-0.800192-27.939257-2.239106-41.621206-0.378124-3.612615-1.147657-7.095441-1.62491-10.673309-1.345916-10.106124-2.790962-20.174435-4.883928-30.023026-0.734786-3.435816-1.783313-6.738778-2.608032-10.139848-2.387289-9.917062-4.930938-19.759521-8.053014-29.365908-0.902387-2.75315-2.012232-5.395928-2.973892-8.121485-3.553341-10.174595-7.374435-20.209182-11.724902-29.98317-0.852311-1.900838-1.82317-3.727074-2.704096-5.612583-4.871665-10.496511-10.112255-20.757972-15.854627-30.727154-0.638723-1.100647-1.330587-2.158371-1.978507-3.252886-6.266635-10.642651-12.987018-20.9501-20.193852-30.922347-0.341333-0.468056-0.701062-0.920782-1.042395-1.388838-7.647297-10.481182-15.784112-20.540295-24.404311-30.20289-0.074603-0.080735-0.149206-0.161469-0.219721-0.242204-8.859337-9.91093-18.198994-19.340519-28.007729-28.314315l-0.003066-0.003066 28.658715-41.943122C922.795689 260.899257 981.077844 379.504415 981.077844 512.002044c0 245.513709-199.031058 444.547832-444.553964 444.547832C291.013238 956.548854 91.976048 757.515752 91.976048 512.002044 91.976048 266.481182 291.013238 67.451146 536.52388 67.451146z" fill="#36ab60" /><path d="M830.195226 249.718036c-8.859337-9.891513-18.206148-19.349717-28.007729-28.314315C811.996232 230.377517 821.335888 239.807106 830.195226 249.718036z" fill="#36ab60" /><path d="M919.344543 419.537501c-2.400575-9.904798-4.917653-19.771784-8.053014-29.365908C914.413605 399.779002 916.956232 409.620439 919.344543 419.537501z" fill="#36ab60" /><path d="M926.836503 459.701397c-1.352048-10.103058-2.778699-20.180567-4.883928-30.023026C924.045541 439.52594 925.490587 449.595273 926.836503 459.701397z" fill="#36ab60" /><path d="M930.699497 511.99489c0-14.066204-0.79406-27.945389-2.239106-41.621206C929.900327 484.055633 930.699497 497.929709 930.699497 511.99489z" fill="#36ab60" /><path d="M908.317637 382.050108c-3.572758-10.161309-7.358084-20.221445-11.724902-29.98317C900.943202 361.841948 904.763273 371.876535 908.317637 382.050108z" fill="#36ab60" /><path d="M854.820279 280.16313c-7.656495-10.456655-15.781046-20.556647-24.404311-30.20289C839.036168 259.621812 847.172982 269.681948 854.820279 280.16313z" fill="#36ab60" /><path d="M876.055505 312.474315c-6.282986-10.618124-12.974754-20.968495-20.193852-30.922347C863.068487 291.524216 869.787848 301.832687 876.055505 312.474315z" fill="#36ab60" /><path d="M893.888639 346.454355c-4.89006-10.47505-10.096926-20.776367-15.854627-30.727154C883.776383 325.697405 889.016974 335.957844 893.888639 346.454355z" fill="#36ab60" /><path d="M536.52388 117.822339c-15.601182 0-30.91315 1.147657-46.046275 2.911553l0-17.464208 36.870132-17.232224c9.985533 4.667273 15.54804 14.810188 14.98392 25.186108 0.129788 1.038307 0.604998-22.971529 0.614196-22.351202l0 29.27291C540.787481 118.110531 538.691449 117.822339 536.52388 117.822339z" fill="#36ab60" /><path d="M508.935154 566.063521c-23.762523 0-43.028439-19.265916-43.028439-43.028439 0-19.454978 12.276758-27.207537 30.705693-41.028471l180.722715-124.626523-122.161565 165.444471C537.909653 550.899737 530.393166 566.063521 508.935154 566.063521z" fill="#36ab60" /></svg>