<?xml version="1.0" standalone="no"?><!DOCTYPE svg PUBLIC "-//W3C//DTD SVG 1.1//EN" "http://www.w3.org/Graphics/SVG/1.1/DTD/svg11.dtd"><svg t="1488372116261" class="icon" style="" viewBox="0 0 1024 1024" version="1.1" xmlns="http://www.w3.org/2000/svg" p-id="4710" xmlns:xlink="http://www.w3.org/1999/xlink" width="200" height="200"><defs><style type="text/css"></style></defs><path d="M798.254545 262.981818h174.545455c11.636364 0 20.945455-9.309091 20.945455-20.945454s-9.309091-20.945455-20.945455-20.945455h-174.545455c-11.636364 0-20.945455 9.309091-20.945454 20.945455-2.327273 11.636364 6.981818 20.945455 20.945454 20.945454z m174.545455 116.363637h-146.618182c-11.636364 0-20.945455 9.309091-20.945454 20.945454s9.309091 20.945455 20.945454 20.945455h146.618182c11.636364 0 20.945455-9.309091 20.945455-20.945455 0-9.309091-9.309091-20.945455-20.945455-20.945454z m0 162.90909h-102.4c-11.636364 0-20.945455 9.309091-20.945455 20.945455s9.309091 20.945455 20.945455 20.945455h102.4c11.636364 0 20.945455-9.309091 20.945455-20.945455s-9.309091-20.945455-20.945455-20.945455z m-179.2 195.49091c-79.127273-41.890909-167.563636-72.145455-167.563636-121.018182 0-67.490909 104.727273-130.327273 104.727272-295.563637 0-58.181818-27.927273-262.981818-249.018181-262.981818-218.763636 0-249.018182 207.127273-249.018182 262.981818 0 162.909091 104.727273 228.072727 104.727272 295.563637 0 48.872727-88.436364 79.127273-167.563636 121.018182-69.818182 39.563636-144.290909 67.490909-144.290909 146.618181 0 55.854545 53.527273 97.745455 104.727273 97.745455h698.181818c51.2 0 104.727273-41.890909 104.727273-97.745455 2.327273-79.127273-69.818182-109.381818-139.636364-146.618181z m23.272727 183.854545H146.618182c-18.618182 0-60.509091-2.327273-60.509091-44.218182 0-44.218182 62.836364-69.818182 160.581818-116.363636 93.090909-44.218182 146.618182-83.781818 146.618182-146.618182 0-90.763636-102.4-132.654545-102.4-293.236364C290.909091 223.418182 372.363636 116.363636 481.745455 116.363636c109.381818 0 190.836364 107.054545 190.836363 204.8 0 160.581818-102.4 202.472727-102.4 293.236364 0 62.836364 53.527273 102.4 146.618182 146.618182 97.745455 46.545455 160.581818 72.145455 160.581818 116.363636s-41.890909 44.218182-60.509091 44.218182z" fill="#bfbfbf" p-id="4711"></path></svg>