<?xml version="1.0" standalone="no"?><!DOCTYPE svg PUBLIC "-//W3C//DTD SVG 1.1//EN" "http://www.w3.org/Graphics/SVG/1.1/DTD/svg11.dtd"><svg class="icon" width="200px" height="200.00px" viewBox="0 0 1024 1024" version="1.1" xmlns="http://www.w3.org/2000/svg"><path d="M949.444971 74.678755C899.750151 24.915672 834.55983 0 769.36951 0s-130.380641 24.915672-180.0072 74.678755L331.945871 332.026932l0 0-257.348177 257.348177c-99.457903 99.321379-99.457903 260.624758 0.068262 360.082661 99.321379 99.389641 260.624758 99.389641 360.014399 0l202.533698-202.465436 312.162656-312.162656C1048.76635 335.303513 1048.76635 174.000133 949.444971 74.678755zM894.630492 379.946937l-257.416439 257.348177-250.521965-250.521965 257.416439-257.348177c33.311913-33.448437 77.887074-51.94747 125.056196-51.94747 47.305646 0 91.880808 18.499033 125.329245 51.94747C963.643492 198.437971 963.643492 310.933938 894.630492 379.946937z" fill="#1296db" /></svg>