<?xml version="1.0" standalone="no"?><!DOCTYPE svg PUBLIC "-//W3C//DTD SVG 1.1//EN" "http://www.w3.org/Graphics/SVG/1.1/DTD/svg11.dtd"><svg class="icon" width="200px" height="200.00px" viewBox="0 0 1024 1024" version="1.1" xmlns="http://www.w3.org/2000/svg"><path d="M832.626688 462.184448c-5.36576-9.183232-6.10304-17.16224-4.947968-24.502272 1.55648-5.193728 3.006464-10.149888 4.317184-14.761984 2.179072-5.865472 7.462912-20.414464 7.7824-39.174144 2.056192-24.674304-18.898944-44.990464-45.62944-44.990464L646.324224 338.755584c-24.674304 0-44.990464-22.888448-44.990464-47.570944 0-24.674304 32.014336-77.873152 34.717696-137.535488C640.196608 61.743104 547.34848 71.385088 547.34848 71.385088l0.04096 0.024576c0 0-14.147584 6.438912-14.147584 16.719872l0 57.188352c0 33.390592-17.547264 68.714496-39.845888 100.278272-18.890752 26.755072-43.442176 60.891136-61.374464 78.815232-18.51392 14.401536-38.641664 34.062336-63.315968 34.062336l0 329.883648c0 0 41.132032 20.56192 102.825984 20.56192l230.080512 0c3.096576 0 89.014272 3.325952 77.832192-69.763072-3.366912-22.003712 56.03328-38.682624 42.835968-78.27456C806.756352 514.351104 862.339072 513.056768 832.626688 462.184448z" fill="#bfbfbf" /><path d="M195.62496 334.053376l0 370.507776 143.958016 0L339.582976 334.053376 195.62496 334.053376zM267.599872 673.112064c-9.05216 0-16.384-7.33184-16.384-16.384 0-9.05216 7.33184-16.384 16.384-16.384 9.05216 0 16.384 7.33184 16.384 16.384C283.983872 665.772032 276.652032 673.112064 267.599872 673.112064z" fill="#bfbfbf" /></svg>