<?xml version="1.0" standalone="no"?><!DOCTYPE svg PUBLIC "-//W3C//DTD SVG 1.1//EN" "http://www.w3.org/Graphics/SVG/1.1/DTD/svg11.dtd"><svg t="1481710617078" class="icon" style="" viewBox="0 0 1024 1024" version="1.1" xmlns="http://www.w3.org/2000/svg" p-id="1006" xmlns:xlink="http://www.w3.org/1999/xlink" width="200" height="200"><defs><style type="text/css"></style></defs><path d="M510.060835 62.432934c-246.885923 0-447.730231 200.847377-447.730231 447.739441 0 246.877737 200.845331 447.736371 447.730231 447.736371 246.924809 0 447.789583-200.858634 447.789583-447.736371C957.850417 263.280312 756.985644 62.432934 510.060835 62.432934zM707.9703 628.90557c10.914584 10.927887 10.914584 28.631084 0 39.558971l-39.584554 39.587624c-10.916631 10.927887-28.650527 10.927887-39.568181 0l-118.734218-118.733195L391.340943 708.053188c-10.914584 10.927887-28.629038 10.927887-39.565111 0l-39.565111-39.587624c-10.936073-10.927887-10.936073-28.631084 0-39.558971l118.730125-118.729102L312.210721 391.44839c-10.936073-10.927887-10.936073-28.64541 0-39.573297l39.565111-39.573297c10.936073-10.930957 28.650527-10.930957 39.565111 0l118.742405 118.733195 118.734218-118.733195c10.916631-10.930957 28.650527-10.930957 39.568181 0l39.584554 39.573297c10.914584 10.927887 10.914584 28.64541 0 39.573297L589.231989 510.177492 707.9703 628.90557z" p-id="1007" fill="#1296db"></path></svg>