<?xml version="1.0" standalone="no"?><!DOCTYPE svg PUBLIC "-//W3C//DTD SVG 1.1//EN" "http://www.w3.org/Graphics/SVG/1.1/DTD/svg11.dtd"><svg t="1488371693519" class="icon" style="" viewBox="0 0 1024 1024" version="1.1" xmlns="http://www.w3.org/2000/svg" p-id="1025" xmlns:xlink="http://www.w3.org/1999/xlink" width="200" height="200"><defs><style type="text/css"></style></defs><path d="M920.064 860.16H103.936C46.592 860.16 0 813.568 0 756.224V267.776C0 210.432 46.592 163.84 103.936 163.84h816.128c57.344 0 103.936 46.592 103.936 103.936v488.448c0 57.344-46.592 103.936-103.936 103.936zM103.936 204.288c-34.816 0-63.488 28.672-63.488 63.488v488.448c0 34.816 28.672 63.488 63.488 63.488h816.128c34.816 0 63.488-28.672 63.488-63.488V267.776c0-34.816-28.672-63.488-63.488-63.488H103.936z" p-id="1026" fill="#bfbfbf"></path><path d="M839.68 699.392H184.32c-12.8 0-23.552-10.24-23.552-23.552v-23.552c0-12.8 10.24-23.552 23.552-23.552h655.36c12.8 0 23.552 10.24 23.552 23.552v23.552c0 12.8-10.24 23.552-23.552 23.552zM207.36 408.064c-25.6 0-46.592-20.992-46.592-46.592s20.992-46.592 46.592-46.592 46.592 20.992 46.592 46.592-20.48 46.592-46.592 46.592zM613.376 408.064c-25.6 0-46.592-20.992-46.592-46.592s20.992-46.592 46.592-46.592 46.592 20.992 46.592 46.592-20.48 46.592-46.592 46.592zM410.624 408.064c-25.6 0-46.592-20.992-46.592-46.592s20.992-46.592 46.592-46.592 46.592 20.992 46.592 46.592-20.992 46.592-46.592 46.592zM816.64 408.064c-25.6 0-46.592-20.992-46.592-46.592s20.992-46.592 46.592-46.592 46.592 20.992 46.592 46.592-20.992 46.592-46.592 46.592zM207.36 548.352c-25.6 0-46.592-20.992-46.592-46.592s20.992-46.592 46.592-46.592 46.592 20.992 46.592 46.592-20.48 46.592-46.592 46.592zM613.376 548.352c-25.6 0-46.592-20.992-46.592-46.592s20.992-46.592 46.592-46.592 46.592 20.992 46.592 46.592-20.48 46.592-46.592 46.592zM410.624 548.352c-25.6 0-46.592-20.992-46.592-46.592s20.992-46.592 46.592-46.592 46.592 20.992 46.592 46.592-20.992 46.592-46.592 46.592zM816.64 548.352c-25.6 0-46.592-20.992-46.592-46.592s20.992-46.592 46.592-46.592 46.592 20.992 46.592 46.592-20.992 46.592-46.592 46.592z" p-id="1027" fill="#bfbfbf"></path></svg>