<?xml version="1.0" standalone="no"?><!DOCTYPE svg PUBLIC "-//W3C//DTD SVG 1.1//EN" "http://www.w3.org/Graphics/SVG/1.1/DTD/svg11.dtd"><svg class="icon" width="200px" height="195.79px" viewBox="0 0 1046 1024" version="1.1" xmlns="http://www.w3.org/2000/svg"><path d="M832.333 341.001h-86v86h86v-86zM704.333 341.002h-86v86h86v-86zM576.333 341.002h-86v86h86v-86zM448.333 341.001h-86v86h86v-86zM320.333 341.002h-86v86h86v-86zM832.333 469.002h-86v86h86v-86zM832.333 640.002h-598v43.001h598v-43.001zM704.333 469.002h-86v86h86v-86zM576.334 469.002h-86v86h86v-86zM448.333 469.002h-86v86h86v-86zM320.333 469.002h-86v86h86v-86zM170.333 192.002h726.001q35 0 60 25t25 60v470q0 35-25 60t-60 25h-726.001q-35 0-60-25t-25-60v-470q0-35 25-60t60-25zM128.333 747.002q0 17 12.5 29.5t29.5 12.5h726.001q17 0 29.5-12.5t12.5-29.5v-470q0-17-12.5-29.5t-29.5-12.5h-726.001q-17 0-29.5 12.5t-12.5 29.5v470z" fill="#bfbfbf" /></svg>