<?xml version="1.0" standalone="no"?><!DOCTYPE svg PUBLIC "-//W3C//DTD SVG 1.1//EN" "http://www.w3.org/Graphics/SVG/1.1/DTD/svg11.dtd"><svg t="1488719979093" class="icon" style="" viewBox="0 0 1024 1024" version="1.1" xmlns="http://www.w3.org/2000/svg" p-id="14821" xmlns:xlink="http://www.w3.org/1999/xlink" width="16" height="16"><defs><style type="text/css"></style></defs><path d="M868.096 841.472c0 38.144-35.008 69.12-78.016 69.12L233.856 910.592c-43.072 0-78.016-30.976-78.016-69.12L155.84 182.528c0-38.208 34.944-69.12 78.016-69.12l556.224 0c43.008 0 78.016 30.912 78.016 69.12L868.096 841.472zM797.76 181.44 226.112 181.44l0 661.184 571.648 0L797.76 181.44zM391.808 248.064l295.168 0L520.448 453.76l187.456 0-334.336 317.376L355.456 771.136l0-64.256 90.88-153.856L316.224 551.616 391.808 248.064z" p-id="14822"></path></svg>